<?xml version="1.0" encoding="UTF-8" standalone="no"?>
<!-- Created with Inkscape (http://www.inkscape.org/) -->

<svg
   version="1.1"
   id="svg2"
   width="257.33334"
   height="155.33333"
   viewBox="0 0 257.33334 155.33333"
   sodipodi:docname="Yabal SVG.svg"
   inkscape:version="1.1.1 (3bf5ae0d25, 2021-09-20)"
   xmlns:inkscape="http://www.inkscape.org/namespaces/inkscape"
   xmlns:sodipodi="http://sodipodi.sourceforge.net/DTD/sodipodi-0.dtd"
   xmlns="http://www.w3.org/2000/svg"
   xmlns:svg="http://www.w3.org/2000/svg">
  <defs
     id="defs6" />
  <sodipodi:namedview
     id="namedview4"
     pagecolor="#ffffff"
     bordercolor="#666666"
     borderopacity="1.0"
     inkscape:pageshadow="2"
     inkscape:pageopacity="0.0"
     inkscape:pagecheckerboard="0"
     showgrid="false"
     inkscape:zoom="2.5171675"
     inkscape:cx="73.892581"
     inkscape:cy="106.07161"
     inkscape:window-width="1920"
     inkscape:window-height="986"
     inkscape:window-x="-11"
     inkscape:window-y="-11"
     inkscape:window-maximized="1"
     inkscape:current-layer="g8" />
  <g
     inkscape:groupmode="layer"
     inkscape:label="Image"
     id="g8">
    <path
       style="fill:#000000;stroke-width:0.666667"
       d="m 231.46409,132.89169 c -0.87452,-0.18629 -1.82752,-1.09413 -2.21307,-2.10821 -0.37243,-0.97958 -1.15918,-2.31368 -1.74833,-2.96468 -1.93322,-2.13619 -0.11531,-2.82256 7.36712,-2.78153 8.13937,0.0446 12.03,1.30465 11.67838,3.78217 -0.42262,2.9779 -9.15475,5.33531 -15.0841,4.07225 z m 10.53592,-2.42121 c 3.7518,-1.8981 0.29163,-4.35698 -6.238,-4.43286 -2.54023,-0.0295 -3.15933,0.16736 -2.87296,0.91364 0.20077,0.52318 -0.0493,1.29512 -0.55571,1.7154 -0.50641,0.42028 -0.75648,1.19222 -0.55571,1.71541 0.47027,1.22552 7.84862,1.28933 10.22238,0.0884 z m -10.84722,-3.53993 c -0.22153,-0.22153 -0.79654,-0.24521 -1.27778,-0.0526 -0.53182,0.21281 -0.37386,0.37079 0.40278,0.40277 0.70277,0.0289 1.09652,-0.12862 0.875,-0.35014 z m -35.48612,5.22455 c -4.31677,-0.67024 -4.50417,-0.80089 -4.0936,-2.85378 0.36535,-1.82674 0.25125,-1.96799 -1.58973,-1.96799 -3.0539,0 -2.35016,-1.03863 1.1665,-1.7216 2.93603,-0.57021 3.20033,-0.79275 3.89351,-3.2784 0.40901,-1.46667 1.09158,-2.63667 1.51682,-2.6 0.42524,0.0367 1.09954,0.11167 1.49844,0.16667 0.47166,0.0651 0.56772,1.03246 0.27473,2.76666 l -0.45053,2.66667 h 3.8586 c 5.06599,0 3.97692,1.17417 -1.63292,1.76052 -3.09271,0.32325 -4.33822,0.75639 -4.83289,1.68071 -0.92381,1.72615 0.35525,2.1011 6.06661,1.77838 4.16002,-0.23507 6.08566,0.32504 3.82446,1.11241 -1.14207,0.39768 -7.86185,0.74411 -9.5,0.48975 z m 11.65614,-1.17478 c -0.78533,-1.4674 -0.75668,-1.83216 0.22068,-2.80952 1.05116,-1.05116 1.19488,-1.05148 2.24142,-0.005 0.92101,0.92102 0.98232,1.41651 0.34762,2.80953 -0.97232,2.13402 -1.66962,2.13525 -2.80972,0.005 z m 7.34386,0.51864 c -2.1248,-1.06146 -2.32856,-1.41386 -2.27992,-3.94314 0.0614,-3.19324 1.6263,-5.95326 3.98467,-7.02781 2.09672,-0.95533 2.83539,-0.20697 1.64737,1.66897 -4.16823,6.58184 -2.64347,9.13635 5.45338,9.13635 2.01236,0 3.11448,0.2568 2.86117,0.66667 -0.70803,1.14561 -9.09111,0.78559 -11.66667,-0.50104 z m -61.91094,-0.74324 c -1.76368,-1.76368 -1.76586,-2.13926 -0.0253,-4.35208 0.76843,-0.9769 1.23554,-2.19728 1.03804,-2.71196 -0.38714,-1.0089 0.22364,-1.19787 7.56482,-2.34048 5.44417,-0.84736 9.33334,-0.87182 9.33334,-0.0587 0,0.3442 -1.425,0.8091 -3.16667,1.03311 -7.1932,0.92517 -10.83333,2.21306 -10.83333,3.83285 0,0.62629 5.49422,0.2586 9.16666,-0.61346 1.75264,-0.41618 2.05707,0.85823 0.33334,1.39542 -0.64167,0.19996 -3.22356,0.65207 -5.73754,1.00468 -4.9869,0.69945 -5.90743,1.13384 -4.40982,2.08096 1.33875,0.84665 4.70261,0.7541 10.64736,-0.29295 4.18366,-0.73687 5.42185,-0.73255 7.58382,0.0265 2.84154,0.99759 10.41618,1.24307 10.41618,0.33756 0,-0.31326 -2.2664,-1.24237 -5.03642,-2.0647 -3.88022,-1.15191 -4.98848,-1.74813 -4.82759,-2.59712 0.14838,-0.78292 1.04957,-1.1624 3.11269,-1.31069 3.79154,-0.27253 5.91845,0.56091 3.08465,1.20873 -2.26139,0.51696 -1.96127,0.69753 3.83333,2.30631 2.97208,0.82515 3.83334,1.35287 3.83334,2.34877 0,1.75776 -3.23846,2.28986 -10.53918,1.73165 -7.33575,-0.56089 -7.00134,-0.56073 -16.2051,-0.007 -7.34184,0.44134 -7.81819,0.39161 -9.16666,-0.95686 z m 54.57456,-6.75761 c -1.27947,-0.79075 -0.47878,-1.49317 1.38915,-1.21865 1.26538,0.18597 1.34922,0.34518 0.53489,1.01574 -0.6033,0.49677 -1.32535,0.57292 -1.92404,0.20291 z M 100.14543,111.60284 c -0.917661,-0.6781 -0.979721,-1.01442 -0.312094,-1.6913 2.170054,-2.20012 0.497564,-2.25912 -4.666667,-0.16464 -6.7588,2.74121 -12.968634,3.1178 -15.166667,0.91976 -5.200967,-5.20096 5.116807,-16.155542 18.477161,-19.617555 2.226747,-0.577007 6.166217,-1.049107 8.754367,-1.049107 2.58815,0 5.47112,-0.348733 6.40659,-0.77496 0.93547,-0.426227 1.88189,-0.59392 2.10316,-0.372647 0.22128,0.221274 -1.27838,3.795 -3.33256,7.941627 -2.05419,4.146622 -3.924,8.514312 -4.15514,9.705982 -0.37951,1.95666 -0.26678,2.16524 1.16309,2.15202 0.87083,-0.008 2.91458,-0.61856 4.54165,-1.3567 4.39156,-1.99225 5.89882,-0.95604 1.72255,1.18422 -6.01732,3.08375 -13.54181,4.5965 -15.53544,3.1233 z m -4.658921,-4.036 c 1.565754,-0.60491 3.70046,-1.87991 4.743791,-2.83334 2.2575,-2.06296 6.67102,-10.481149 6.03481,-11.510562 -0.63243,-1.023287 -8.567201,-0.113267 -11.911514,1.3661 -6.00746,2.657413 -10.672327,11.327502 -7.186927,13.357562 1.73872,1.01271 5.114353,0.85863 8.31984,-0.37976 z m 73.048431,4.41672 C 165.17394,111.39866 164,110.25148 164,107.55193 c 0,-3.15477 1.4058,-5.58119 5.14432,-8.879139 6.18778,-5.45858 14.86764,-8.672793 23.42054,-8.672793 2.58816,0 5.47113,-0.348733 6.40659,-0.77496 0.93548,-0.426227 1.8699,-0.60592 2.0765,-0.399313 0.20661,0.206606 -1.44466,4.0675 -3.66948,8.57976 -2.22482,4.512255 -4.04513,8.891945 -4.04513,9.732635 0,1.9462 1.88783,2.00392 5.90613,0.18057 3.3005,-1.49764 4.09387,-1.61685 4.09387,-0.61515 0,1.83694 -14.1497,6.32216 -17.32508,5.49178 -1.52084,-0.3977 -1.65392,-1.03273 -0.62091,-2.96292 0.39637,-0.74063 0.60981,-1.45748 0.47429,-1.59299 -0.13552,-0.13551 -1.77648,0.48589 -3.6466,1.38089 -4.52874,2.16738 -10.64296,3.49178 -13.6801,2.96326 z m 12.2849,-4.41672 c 1.56576,-0.60491 3.70046,-1.87991 4.7438,-2.83334 2.26298,-2.06797 6.67036,-10.482215 6.03178,-11.515442 -0.60845,-0.984507 -8.09182,-0.252313 -11.35462,1.110973 -4.60586,1.924454 -8.90746,7.109989 -8.90746,10.737869 0,3.64063 3.88434,4.66425 9.4865,2.49994 z m -139.486506,3.67234 c 0,-0.30092 0.825,-0.71582 1.833334,-0.92202 3.946101,-0.80694 5.149036,-1.94926 8.056479,-7.6505 2.384861,-4.676495 2.837716,-6.146602 2.591662,-8.413322 -0.345358,-3.181527 -3.494896,-8.126707 -6.570727,-10.316893 -2.07005,-1.474007 -2.122196,-1.476813 -6.760575,-0.3636 -5.667179,1.360127 -8.545804,2.671266 -10.788392,4.91386 -2.245078,2.245073 -2.146962,3.91206 0.304886,5.17996 2.189015,1.131986 2.409049,1.65762 1.2,2.866666 -2.212694,2.212694 -7.2,-0.754733 -7.2,-4.283973 0,-2.829953 4.918586,-7.120593 10.09769,-8.808533 4.225487,-1.377147 14.226152,-3.440827 16.674368,-3.440827 0.710289,0 2.728179,1.436747 4.4842,3.192767 2.799899,2.7999 4.318276,5.59246 5.822181,10.708026 0.169171,0.575434 1.527172,-0.368933 3.759858,-2.614646 6.710131,-6.749293 14.071384,-11.56088 21.240071,-13.883293 3.21346,-1.041047 8.491533,-1.102447 9.46946,-0.110147 1.26842,1.287067 -1.345913,2.707293 -4.983573,2.707293 -9.741954,0 -26.189709,12.163533 -31.683335,23.430642 -3.426168,7.02687 -3.475056,6.91465 2.976159,6.83146 3.769511,-0.0486 5.445422,0.1631 5.277115,0.66666 -0.292393,0.87481 -25.800861,1.1817 -25.800861,0.31042 z m 87.183426,-0.23874 c -2.3795,-1.34324 -3.32014,-3.20542 -2.77152,-5.48676 0.77888,-3.23883 7.68534,-19.079642 9.52511,-21.847015 3.32347,-4.99914 12.76276,-9 21.23384,-9 3.82795,0 6.32921,1.40734 4.95589,2.788453 -0.63508,0.638687 -2.81704,0.835487 -8,0.721554 -5.09669,-0.112034 -7.45358,0.09479 -8.27414,0.726066 -1.56136,1.201207 -7.61702,13.555067 -6.96438,14.207707 0.13148,0.13148 1.62046,-0.372 3.30883,-1.118847 11.94205,-5.28254 20.93247,-1.507193 17.40498,7.30886 -1.47435,3.684762 -7.36563,8.920322 -12.10426,10.757002 -5.01165,1.9425 -15.57981,2.48664 -18.31435,0.94298 z m 13.87276,-1.59969 c 4.66109,-2.11692 9.55342,-8.46019 9.59584,-12.441712 0.0242,-2.268853 -2.3962,-4.292373 -5.13418,-4.292373 -7.01919,0 -16.28262,9.773025 -14.52184,15.320725 0.82766,2.60775 5.87042,3.31621 10.06018,1.41336 z m 66.54436,1.66732 c -0.23411,-0.61007 -0.25214,-1.97675 -0.0401,-3.03706 0.6329,-3.1645 10.15661,-23.148585 12.35399,-25.922998 3.32731,-4.201087 12.08924,-7.441347 20.12201,-7.441347 3.83058,0 5.29686,0.48706 5.29686,1.759473 0,1.574314 -2.56946,2.04232 -9.40554,1.71314 -6.32087,-0.304366 -6.54074,-0.26594 -8.09904,1.415494 -1.62631,1.75482 -13.16208,26.992038 -13.16208,28.795158 0,1.43389 1.40949,1.22771 7.40005,-1.08249 2.94638,-1.13624 5.51674,-1.9062 5.71192,-1.71102 0.77018,0.77018 -0.66415,1.74386 -5.61318,3.81048 -6.28867,2.62602 -13.87021,3.51154 -14.56492,1.70117 z M 50.37842,69.857945 c 0.263087,-0.828913 1.170836,-2.561053 2.017219,-3.849198 0.846383,-1.288145 1.808027,-3.556126 2.136987,-5.039958 0.32896,-1.483832 1.024669,-3.583832 1.546021,-4.666667 l 0.947912,-1.96879 h 6.487558 c 7.197831,0 8.566872,-0.679808 2.652551,-1.317143 -2.108333,-0.227197 -5.183312,-0.721983 -6.833286,-1.099525 -2.560751,-0.585943 -3.097563,-0.523811 -3.666667,0.424389 -0.366693,0.610956 -2.033506,2.831496 -3.704029,4.934534 -1.670523,2.103038 -3.431919,4.776364 -3.914213,5.940725 -0.482294,1.164361 -1.09494,2.11702 -1.361436,2.11702 -0.460433,0 -1.584065,-2.388127 -3.367985,-7.158194 -1.408607,-3.76651 -1.982546,-1.66405 -1.536374,5.628067 l 0.432477,7.068273 -2.821553,-0.45118 C 34.960642,69.711439 27.666477,65.669476 23.816404,61.788405 20.274181,58.217663 15.680678,50.624634 16.171658,49.151693 16.366606,48.56685 18.467114,48.390724 23.72088,48.518698 l 7.279121,0.177308 -3.513103,-1.249995 c -1.932206,-0.687497 -3.687247,-1.424139 -3.90009,-1.636983 -0.751788,-0.751788 0.426205,-1.663082 2.701588,-2.089947 1.310045,-0.245765 2.464297,-0.925134 2.676917,-1.575575 0.205586,-0.628929 1.422494,-1.821265 2.70424,-2.649636 4.463895,-2.884939 2.269724,-2.737059 -6.963137,0.469295 -5.111472,1.775093 -9.461472,3.059555 -9.666667,2.85436 -0.724094,-0.724093 -0.360521,-6.585619 0.648857,-10.460884 1.986316,-7.625979 7.327436,-14.836613 13.791459,-18.618784 3.447131,-2.016955 4.519936,-1.859241 4.519936,0.664477 0,2.108349 2.160237,10.783621 2.460747,9.882089 0.123786,-0.371354 -0.04808,-2.612267 -0.381924,-4.979807 -0.333843,-2.367539 -0.375996,-4.55177 -0.09367,-4.853848 0.282322,-0.302076 3.582549,3.072924 7.333836,7.5 3.751289,4.427077 7.314135,8.039265 7.917436,8.027084 0.603302,-0.01218 2.296913,-0.910048 3.763579,-1.995259 1.466667,-1.085212 4.991667,-3.505271 7.833334,-5.377909 2.841667,-1.872639 5.166667,-3.634255 5.166667,-3.914702 0,-0.697054 -10.880847,2.917478 -12.773807,4.243359 -0.837578,0.586662 -1.981117,1.065216 -2.541198,1.063452 -0.560081,-0.0017 -4.122631,-3.115948 -7.916778,-6.920411 -5.032859,-5.046544 -6.658495,-7.065506 -6.011164,-7.4655782 1.875864,-1.1593473 12.24427,-1.1350046 16.308465,0.038287 8.772798,2.5326212 16.636882,8.5187932 20.488909,15.5962422 3.201513,5.882237 4.560393,14.917 3.154633,20.974146 -0.78974,3.402827 -1.319253,3.770588 -2.563633,1.780517 -0.573187,-0.916666 -3.116847,-3.661968 -5.652567,-6.10067 -3.826373,-3.679965 -4.501967,-4.643629 -3.97272,-5.666667 0.350733,-0.677964 0.83836,-2.344806 1.083626,-3.704092 0.24526,-1.359286 1.059814,-3.859219 1.81012,-5.555406 1.856774,-4.197549 1.216354,-4.408451 -1.003213,-0.330376 -0.992673,1.823875 -2.095719,3.495892 -2.451204,3.715594 -0.355486,0.219703 -1.083527,1.353945 -1.617869,2.520538 -0.534343,1.166594 -1.619712,2.921086 -2.411932,3.898872 l -1.440401,1.777791 1.447768,2.342537 c 0.796272,1.288395 2.297455,2.888389 3.335962,3.555541 3.986209,2.560801 11.39367,7.75315 11.39367,7.986531 0,1.465287 -6.034574,9.19533 -9.135801,11.70259 -3.270046,2.64374 -11.061738,6.229293 -14.747495,6.786439 -2.767604,0.41836 -2.864101,0.375374 -2.404953,-1.071273 z m 2.147074,-17.7616 c 0.228925,-0.691487 -0.188957,-0.796444 -1.77983,-0.44703 -1.906493,0.418737 -2.078996,0.314533 -2.078996,-1.255861 0,-2.538829 2.215061,-7.908409 4.982001,-12.076979 2.598474,-3.914766 4.237128,-5.285568 7.184666,-6.010266 1.939383,-0.476828 2.475365,-2.101685 0.893505,-2.708702 -2.202895,-0.84533 -7.644974,3.750102 -10.158569,8.578158 l -1.123332,2.157667 -0.89019,-2.333333 c -1.960956,-5.139984 -2.462076,-5.677893 -5.138374,-5.515603 -4.898653,0.297055 -8.792161,4.286548 -8.310722,8.515603 0.168468,1.479859 0.617787,2.055404 1.727681,2.213034 1.622701,0.23046 2.036622,-1.076413 0.748811,-2.364223 -1.230231,-1.230232 -0.04389,-4.123388 2.269081,-5.533665 1.181826,-0.720589 2.367678,-1.311283 2.635226,-1.312654 0.973101,-0.005 3.180216,5.340088 3.180216,7.701678 0,3.974273 -1.868127,9.439169 -3.360068,9.829321 -0.71863,0.187926 -1.306599,0.682388 -1.306599,1.098806 0,1.15437 10.136772,0.638213 10.525493,-0.535951 z"
       id="path84" />
  </g>
</svg>
